<svg xmlns="http://www.w3.org/2000/svg" width="804" height="1236" viewBox="0 0 804 1236">
<defs><marker id="ah" markerWidth="9" markerHeight="9" refX="7" refY="4.5" orient="auto"><path d="M0,0 L8,4.5 L0,9 z" fill="#666"/></marker><style>text{font-family:ui-monospace,SFMono-Regular,Menlo,Consolas,monospace}</style></defs>
<rect width="804" height="1236" fill="#ffffff"/>
<text x="24" y="30" font-size="20" font-weight="bold" fill="#111">Test framework schema (PostgreSQL) — tf.* only</text>
<text x="24" y="52" font-size="11.5" fill="#666">Framework-owned tables. Your pipeline&apos;s tables stay with your pipeline — assertions read them, the framework never creates them.</text>
<text x="24" y="82" font-size="13" font-weight="bold" fill="#555" letter-spacing="2">A · TEST DEFINITIONS</text>
<text x="440" y="82" font-size="13" font-weight="bold" fill="#555" letter-spacing="2">B · TEST EXECUTION</text>
<rect x="24" y="96" width="340" height="318" rx="6" fill="#fff" stroke="#d0d7de" stroke-width="1.5"/>
<rect x="24" y="96" width="340" height="36" rx="6" fill="#1f6feb"/>
<rect x="24" y="126" width="340" height="6" fill="#1f6feb"/>
<text x="36" y="119" font-size="14" font-weight="bold" fill="#fff">tf.environments</text>
<text x="34" y="157" font-size="12" fill="#111">env_id</text>
<rect x="85.2" y="145" width="28" height="15" rx="7" fill="#1f2328"/>
<text x="99.2" y="156.5" font-size="9.5" fill="#fff" text-anchor="middle">PK</text>
<text x="354" y="157" font-size="11" fill="#8a949e" text-anchor="end">TEXT</text>
<line x1="32" y1="163" x2="356" y2="163" stroke="#eef1f4"/>
<text x="34" y="181" font-size="12" fill="#111">display_name</text>
<text x="354" y="181" font-size="11" fill="#8a949e" text-anchor="end">TEXT</text>
<line x1="32" y1="187" x2="356" y2="187" stroke="#eef1f4"/>
<text x="34" y="205" font-size="12" fill="#111">pipeline_mode</text>
<text x="354" y="205" font-size="11" fill="#8a949e" text-anchor="end">TEXT</text>
<line x1="32" y1="211" x2="356" y2="211" stroke="#eef1f4"/>
<text x="34" y="229" font-size="12" fill="#111">storage_backend</text>
<text x="354" y="229" font-size="11" fill="#8a949e" text-anchor="end">TEXT</text>
<line x1="32" y1="235" x2="356" y2="235" stroke="#eef1f4"/>
<text x="34" y="253" font-size="12" fill="#111">gcp_project</text>
<text x="354" y="253" font-size="11" fill="#8a949e" text-anchor="end">TEXT</text>
<line x1="32" y1="259" x2="356" y2="259" stroke="#eef1f4"/>
<text x="34" y="277" font-size="12" fill="#111">gcs_bucket</text>
<text x="354" y="277" font-size="11" fill="#8a949e" text-anchor="end">TEXT</text>
<line x1="32" y1="283" x2="356" y2="283" stroke="#eef1f4"/>
<text x="34" y="301" font-size="12" fill="#111">local_bucket_root</text>
<text x="354" y="301" font-size="11" fill="#8a949e" text-anchor="end">TEXT</text>
<line x1="32" y1="307" x2="356" y2="307" stroke="#eef1f4"/>
<text x="34" y="325" font-size="12" fill="#111">dataflow_region</text>
<text x="354" y="325" font-size="11" fill="#8a949e" text-anchor="end">TEXT</text>
<line x1="32" y1="331" x2="356" y2="331" stroke="#eef1f4"/>
<text x="34" y="349" font-size="12" fill="#111">db_dsn_env_var</text>
<text x="354" y="349" font-size="11" fill="#8a949e" text-anchor="end">TEXT</text>
<line x1="32" y1="355" x2="356" y2="355" stroke="#eef1f4"/>
<text x="34" y="373" font-size="12" fill="#111">ingest_adapter</text>
<text x="354" y="373" font-size="11" fill="#8a949e" text-anchor="end">TEXT</text>
<line x1="32" y1="379" x2="356" y2="379" stroke="#eef1f4"/>
<text x="34" y="397" font-size="12" fill="#111">active</text>
<text x="354" y="397" font-size="11" fill="#8a949e" text-anchor="end">BOOLEAN</text>
<line x1="32" y1="403" x2="356" y2="403" stroke="#eef1f4"/>
<rect x="24" y="444" width="340" height="174" rx="6" fill="#fff" stroke="#d0d7de" stroke-width="1.5"/>
<rect x="24" y="444" width="340" height="36" rx="6" fill="#1f6feb"/>
<rect x="24" y="474" width="340" height="6" fill="#1f6feb"/>
<text x="36" y="467" font-size="14" font-weight="bold" fill="#fff">tf.pipelines</text>
<text x="34" y="505" font-size="12" fill="#111">pipeline_id</text>
<rect x="121.2" y="493" width="28" height="15" rx="7" fill="#1f2328"/>
<text x="135.2" y="504.5" font-size="9.5" fill="#fff" text-anchor="middle">PK</text>
<text x="354" y="505" font-size="11" fill="#8a949e" text-anchor="end">TEXT</text>
<line x1="32" y1="511" x2="356" y2="511" stroke="#eef1f4"/>
<text x="34" y="529" font-size="12" fill="#111">display_name</text>
<text x="354" y="529" font-size="11" fill="#8a949e" text-anchor="end">TEXT</text>
<line x1="32" y1="535" x2="356" y2="535" stroke="#eef1f4"/>
<text x="34" y="553" font-size="12" fill="#111">flex_template_gcs_path</text>
<text x="354" y="553" font-size="11" fill="#8a949e" text-anchor="end">TEXT</text>
<line x1="32" y1="559" x2="356" y2="559" stroke="#eef1f4"/>
<text x="34" y="577" font-size="12" fill="#111">pipeline_version</text>
<text x="354" y="577" font-size="11" fill="#8a949e" text-anchor="end">TEXT</text>
<line x1="32" y1="583" x2="356" y2="583" stroke="#eef1f4"/>
<text x="34" y="601" font-size="12" fill="#111">active</text>
<text x="354" y="601" font-size="11" fill="#8a949e" text-anchor="end">BOOLEAN</text>
<line x1="32" y1="607" x2="356" y2="607" stroke="#eef1f4"/>
<rect x="24" y="648" width="340" height="150" rx="6" fill="#fff" stroke="#d0d7de" stroke-width="1.5"/>
<rect x="24" y="648" width="340" height="36" rx="6" fill="#1f6feb"/>
<rect x="24" y="678" width="340" height="6" fill="#1f6feb"/>
<text x="36" y="671" font-size="14" font-weight="bold" fill="#fff">tf.suites</text>
<text x="34" y="709" font-size="12" fill="#111">suite_id</text>
<rect x="99.6" y="697" width="28" height="15" rx="7" fill="#1f2328"/>
<text x="113.6" y="708.5" font-size="9.5" fill="#fff" text-anchor="middle">PK</text>
<text x="354" y="709" font-size="11" fill="#8a949e" text-anchor="end">TEXT</text>
<line x1="32" y1="715" x2="356" y2="715" stroke="#eef1f4"/>
<text x="34" y="733" font-size="12" fill="#111">display_name</text>
<text x="354" y="733" font-size="11" fill="#8a949e" text-anchor="end">TEXT</text>
<line x1="32" y1="739" x2="356" y2="739" stroke="#eef1f4"/>
<text x="34" y="757" font-size="12" fill="#111">test_case_ids</text>
<text x="354" y="757" font-size="11" fill="#8a949e" text-anchor="end">JSONB</text>
<line x1="32" y1="763" x2="356" y2="763" stroke="#eef1f4"/>
<text x="34" y="781" font-size="12" fill="#111">active</text>
<text x="354" y="781" font-size="11" fill="#8a949e" text-anchor="end">BOOLEAN</text>
<line x1="32" y1="787" x2="356" y2="787" stroke="#eef1f4"/>
<rect x="24" y="828" width="340" height="318" rx="6" fill="#fff" stroke="#d0d7de" stroke-width="1.5"/>
<rect x="24" y="828" width="340" height="36" rx="6" fill="#1f6feb"/>
<rect x="24" y="858" width="340" height="6" fill="#1f6feb"/>
<text x="36" y="851" font-size="14" font-weight="bold" fill="#fff">tf.test_cases</text>
<text x="34" y="889" font-size="12" fill="#111">test_case_id</text>
<rect x="128.4" y="877" width="28" height="15" rx="7" fill="#1f2328"/>
<text x="142.4" y="888.5" font-size="9.5" fill="#fff" text-anchor="middle">PK</text>
<text x="354" y="889" font-size="11" fill="#8a949e" text-anchor="end">TEXT</text>
<line x1="32" y1="895" x2="356" y2="895" stroke="#eef1f4"/>
<text x="34" y="913" font-size="12" fill="#111">name</text>
<text x="354" y="913" font-size="11" fill="#8a949e" text-anchor="end">TEXT</text>
<line x1="32" y1="919" x2="356" y2="919" stroke="#eef1f4"/>
<text x="34" y="937" font-size="12" fill="#111">category</text>
<text x="354" y="937" font-size="11" fill="#8a949e" text-anchor="end">TEXT</text>
<line x1="32" y1="943" x2="356" y2="943" stroke="#eef1f4"/>
<text x="34" y="961" font-size="12" fill="#111">description</text>
<text x="354" y="961" font-size="11" fill="#8a949e" text-anchor="end">TEXT</text>
<line x1="32" y1="967" x2="356" y2="967" stroke="#eef1f4"/>
<text x="34" y="985" font-size="12" fill="#111">executions</text>
<text x="354" y="985" font-size="11" fill="#8a949e" text-anchor="end">INTEGER</text>
<line x1="32" y1="991" x2="356" y2="991" stroke="#eef1f4"/>
<text x="34" y="1009" font-size="12" fill="#111">fixture_sequence</text>
<text x="354" y="1009" font-size="11" fill="#8a949e" text-anchor="end">JSONB</text>
<line x1="32" y1="1015" x2="356" y2="1015" stroke="#eef1f4"/>
<text x="34" y="1033" font-size="12" fill="#111">pipeline_id</text>
<rect x="121.2" y="1021" width="26" height="15" rx="7" fill="#fff" stroke="#1f6feb" stroke-width="1"/>
<text x="134.2" y="1032.5" font-size="9.5" fill="#1f6feb" text-anchor="middle">FK</text>
<text x="354" y="1033" font-size="11" fill="#8a949e" text-anchor="end">TEXT</text>
<line x1="32" y1="1039" x2="356" y2="1039" stroke="#eef1f4"/>
<text x="34" y="1057" font-size="12" fill="#111">expectations</text>
<text x="354" y="1057" font-size="11" fill="#8a949e" text-anchor="end">JSONB</text>
<line x1="32" y1="1063" x2="356" y2="1063" stroke="#eef1f4"/>
<text x="34" y="1081" font-size="12" fill="#111">batchable</text>
<text x="354" y="1081" font-size="11" fill="#8a949e" text-anchor="end">BOOLEAN</text>
<line x1="32" y1="1087" x2="356" y2="1087" stroke="#eef1f4"/>
<text x="34" y="1105" font-size="12" fill="#111">enabled</text>
<text x="354" y="1105" font-size="11" fill="#8a949e" text-anchor="end">BOOLEAN</text>
<line x1="32" y1="1111" x2="356" y2="1111" stroke="#eef1f4"/>
<text x="34" y="1129" font-size="12" fill="#111">owner</text>
<text x="354" y="1129" font-size="11" fill="#8a949e" text-anchor="end">TEXT</text>
<line x1="32" y1="1135" x2="356" y2="1135" stroke="#eef1f4"/>
<rect x="440" y="96" width="340" height="246" rx="6" fill="#fff" stroke="#d0d7de" stroke-width="1.5"/>
<rect x="440" y="96" width="340" height="36" rx="6" fill="#1f6feb"/>
<rect x="440" y="126" width="340" height="6" fill="#1f6feb"/>
<text x="452" y="119" font-size="14" font-weight="bold" fill="#fff">tf.test_runs</text>
<text x="450" y="157" font-size="12" fill="#111">run_id</text>
<rect x="501.2" y="145" width="28" height="15" rx="7" fill="#1f2328"/>
<text x="515.2" y="156.5" font-size="9.5" fill="#fff" text-anchor="middle">PK</text>
<text x="770" y="157" font-size="11" fill="#8a949e" text-anchor="end">UUID</text>
<line x1="448" y1="163" x2="772" y2="163" stroke="#eef1f4"/>
<text x="450" y="181" font-size="12" fill="#111">env_id</text>
<rect x="501.2" y="169" width="26" height="15" rx="7" fill="#fff" stroke="#1f6feb" stroke-width="1"/>
<text x="514.2" y="180.5" font-size="9.5" fill="#1f6feb" text-anchor="middle">FK</text>
<text x="770" y="181" font-size="11" fill="#8a949e" text-anchor="end">TEXT</text>
<line x1="448" y1="187" x2="772" y2="187" stroke="#eef1f4"/>
<text x="450" y="205" font-size="12" fill="#111">suite</text>
<text x="770" y="205" font-size="11" fill="#8a949e" text-anchor="end">TEXT</text>
<line x1="448" y1="211" x2="772" y2="211" stroke="#eef1f4"/>
<text x="450" y="229" font-size="12" fill="#111">status</text>
<text x="770" y="229" font-size="11" fill="#8a949e" text-anchor="end">TEXT</text>
<line x1="448" y1="235" x2="772" y2="235" stroke="#eef1f4"/>
<text x="450" y="253" font-size="12" fill="#111">triggered_by</text>
<text x="770" y="253" font-size="11" fill="#8a949e" text-anchor="end">TEXT</text>
<line x1="448" y1="259" x2="772" y2="259" stroke="#eef1f4"/>
<text x="450" y="277" font-size="12" fill="#111">started_at</text>
<text x="770" y="277" font-size="11" fill="#8a949e" text-anchor="end">TIMESTAMPTZ</text>
<line x1="448" y1="283" x2="772" y2="283" stroke="#eef1f4"/>
<text x="450" y="301" font-size="12" fill="#111">finished_at</text>
<text x="770" y="301" font-size="11" fill="#8a949e" text-anchor="end">TIMESTAMPTZ</text>
<line x1="448" y1="307" x2="772" y2="307" stroke="#eef1f4"/>
<text x="450" y="325" font-size="12" fill="#111">summary</text>
<text x="770" y="325" font-size="11" fill="#8a949e" text-anchor="end">JSONB</text>
<line x1="448" y1="331" x2="772" y2="331" stroke="#eef1f4"/>
<rect x="440" y="372" width="340" height="294" rx="6" fill="#fff" stroke="#d0d7de" stroke-width="1.5"/>
<rect x="440" y="372" width="340" height="36" rx="6" fill="#1f6feb"/>
<rect x="440" y="402" width="340" height="6" fill="#1f6feb"/>
<text x="452" y="395" font-size="14" font-weight="bold" fill="#fff">tf.test_case_results</text>
<text x="450" y="433" font-size="12" fill="#111">run_id</text>
<rect x="501.2" y="421" width="26" height="15" rx="7" fill="#fff" stroke="#1f6feb" stroke-width="1"/>
<text x="514.2" y="432.5" font-size="9.5" fill="#1f6feb" text-anchor="middle">FK</text>
<text x="770" y="433" font-size="11" fill="#8a949e" text-anchor="end">UUID</text>
<line x1="448" y1="439" x2="772" y2="439" stroke="#eef1f4"/>
<text x="450" y="457" font-size="12" fill="#111">test_case_id</text>
<rect x="544.4" y="445" width="26" height="15" rx="7" fill="#fff" stroke="#1f6feb" stroke-width="1"/>
<text x="557.4" y="456.5" font-size="9.5" fill="#1f6feb" text-anchor="middle">FK</text>
<text x="770" y="457" font-size="11" fill="#8a949e" text-anchor="end">TEXT</text>
<line x1="448" y1="463" x2="772" y2="463" stroke="#eef1f4"/>
<text x="450" y="481" font-size="12" fill="#111">execution_no</text>
<text x="770" y="481" font-size="11" fill="#8a949e" text-anchor="end">INTEGER</text>
<line x1="448" y1="487" x2="772" y2="487" stroke="#eef1f4"/>
<text x="450" y="505" font-size="12" fill="#111">status</text>
<text x="770" y="505" font-size="11" fill="#8a949e" text-anchor="end">TEXT</text>
<line x1="448" y1="511" x2="772" y2="511" stroke="#eef1f4"/>
<text x="450" y="529" font-size="12" fill="#111">gcs_uris</text>
<text x="770" y="529" font-size="11" fill="#8a949e" text-anchor="end">JSONB</text>
<line x1="448" y1="535" x2="772" y2="535" stroke="#eef1f4"/>
<text x="450" y="553" font-size="12" fill="#111">file_ids</text>
<text x="770" y="553" font-size="11" fill="#8a949e" text-anchor="end">JSONB</text>
<line x1="448" y1="559" x2="772" y2="559" stroke="#eef1f4"/>
<text x="450" y="577" font-size="12" fill="#111">load_statuses</text>
<text x="770" y="577" font-size="11" fill="#8a949e" text-anchor="end">JSONB</text>
<line x1="448" y1="583" x2="772" y2="583" stroke="#eef1f4"/>
<text x="450" y="601" font-size="12" fill="#111">started_at</text>
<text x="770" y="601" font-size="11" fill="#8a949e" text-anchor="end">TIMESTAMPTZ</text>
<line x1="448" y1="607" x2="772" y2="607" stroke="#eef1f4"/>
<text x="450" y="625" font-size="12" fill="#111">finished_at</text>
<text x="770" y="625" font-size="11" fill="#8a949e" text-anchor="end">TIMESTAMPTZ</text>
<line x1="448" y1="631" x2="772" y2="631" stroke="#eef1f4"/>
<text x="450" y="649" font-size="12" fill="#111">details</text>
<text x="770" y="649" font-size="11" fill="#8a949e" text-anchor="end">JSONB</text>
<line x1="448" y1="655" x2="772" y2="655" stroke="#eef1f4"/>
<rect x="440" y="696" width="340" height="318" rx="6" fill="#fff" stroke="#d0d7de" stroke-width="1.5"/>
<rect x="440" y="696" width="340" height="36" rx="6" fill="#1f6feb"/>
<rect x="440" y="726" width="340" height="6" fill="#1f6feb"/>
<text x="452" y="719" font-size="14" font-weight="bold" fill="#fff">tf.assertion_results</text>
<text x="450" y="757" font-size="12" fill="#111">assertion_id</text>
<rect x="544.4" y="745" width="28" height="15" rx="7" fill="#1f2328"/>
<text x="558.4" y="756.5" font-size="9.5" fill="#fff" text-anchor="middle">PK</text>
<text x="770" y="757" font-size="11" fill="#8a949e" text-anchor="end">BIGSERIAL</text>
<line x1="448" y1="763" x2="772" y2="763" stroke="#eef1f4"/>
<text x="450" y="781" font-size="12" fill="#111">run_id</text>
<text x="770" y="781" font-size="11" fill="#8a949e" text-anchor="end">UUID</text>
<line x1="448" y1="787" x2="772" y2="787" stroke="#eef1f4"/>
<text x="450" y="805" font-size="12" fill="#111">test_case_id</text>
<text x="770" y="805" font-size="11" fill="#8a949e" text-anchor="end">TEXT</text>
<line x1="448" y1="811" x2="772" y2="811" stroke="#eef1f4"/>
<text x="450" y="829" font-size="12" fill="#111">execution_no</text>
<text x="770" y="829" font-size="11" fill="#8a949e" text-anchor="end">INTEGER</text>
<line x1="448" y1="835" x2="772" y2="835" stroke="#eef1f4"/>
<text x="450" y="853" font-size="12" fill="#111">name</text>
<text x="770" y="853" font-size="11" fill="#8a949e" text-anchor="end">TEXT</text>
<line x1="448" y1="859" x2="772" y2="859" stroke="#eef1f4"/>
<text x="450" y="877" font-size="12" fill="#111">kind</text>
<text x="770" y="877" font-size="11" fill="#8a949e" text-anchor="end">TEXT</text>
<line x1="448" y1="883" x2="772" y2="883" stroke="#eef1f4"/>
<text x="450" y="901" font-size="12" fill="#111">status</text>
<text x="770" y="901" font-size="11" fill="#8a949e" text-anchor="end">TEXT</text>
<line x1="448" y1="907" x2="772" y2="907" stroke="#eef1f4"/>
<text x="450" y="925" font-size="12" fill="#111">expected</text>
<text x="770" y="925" font-size="11" fill="#8a949e" text-anchor="end">JSONB</text>
<line x1="448" y1="931" x2="772" y2="931" stroke="#eef1f4"/>
<text x="450" y="949" font-size="12" fill="#111">actual</text>
<text x="770" y="949" font-size="11" fill="#8a949e" text-anchor="end">JSONB</text>
<line x1="448" y1="955" x2="772" y2="955" stroke="#eef1f4"/>
<text x="450" y="973" font-size="12" fill="#111">message</text>
<text x="770" y="973" font-size="11" fill="#8a949e" text-anchor="end">TEXT</text>
<line x1="448" y1="979" x2="772" y2="979" stroke="#eef1f4"/>
<text x="450" y="997" font-size="12" fill="#111">checked_at</text>
<text x="770" y="997" font-size="11" fill="#8a949e" text-anchor="end">TIMESTAMPTZ</text>
<line x1="448" y1="1003" x2="772" y2="1003" stroke="#eef1f4"/>
<path d="M364,1029 L420,1029 L420,462 L364,462" fill="none" stroke="#888" stroke-width="1.2" marker-end="url(#ah)"/>
<path d="M440,177 L402,177 L402,114 L364,114" fill="none" stroke="#888" stroke-width="1.2" marker-end="url(#ah)"/>
<path d="M440,429 L384,429 L384,114 L440,114" fill="none" stroke="#888" stroke-width="1.2" marker-end="url(#ah)"/>
<path d="M440,453 L402,453 L402,846 L364,846" fill="none" stroke="#888" stroke-width="1.2" marker-end="url(#ah)"/>
<text x="24" y="1212" font-size="11.5" fill="#666">Plug-in: tf.environments.ingest_adapter → your ingest function.</text>
</svg>